<?xml version="1.0" encoding="UTF-8" standalone="no"?>
<!DOCTYPE svg PUBLIC "-//W3C//DTD SVG 1.1//EN"
 "http://www.w3.org/Graphics/SVG/1.1/DTD/svg11.dtd">
<!-- Generated by graphviz version 2.38.0 (20140413.2041)
 -->
<!-- Title: controllers_diagram Pages: 1 -->
<svg width="665pt" height="640pt"
 viewBox="0.00 0.00 664.65 640.00" xmlns="http://www.w3.org/2000/svg" xmlns:xlink="http://www.w3.org/1999/xlink">
<g id="graph0" class="graph" transform="scale(1 1) rotate(0) translate(242.217 347.5)">
<title>controllers_diagram</title>
<polygon fill="none" stroke="none" points="-242.217,292.5 -242.217,-347.5 422.431,-347.5 422.431,292.5 -242.217,292.5"/>
<!-- _diagram_info -->
<g id="node1" class="node"><title>_diagram_info</title>
<text text-anchor="start" x="-195.688" y="144.9" font-family="Times,serif" font-size="13.00">Controllers diagram</text>
<text text-anchor="start" x="-195.688" y="157.9" font-family="Times,serif" font-size="13.00">Date: Feb 08 2016 &#45; 21:59</text>
<text text-anchor="start" x="-195.688" y="170.9" font-family="Times,serif" font-size="13.00">Migration version: 20160209035543</text>
<text text-anchor="start" x="-195.688" y="183.9" font-family="Times,serif" font-size="13.00">Generated by RailRoady 1.3.1</text>
<text text-anchor="start" x="-195.688" y="196.9" font-family="Times,serif" font-size="13.00">http://railroady.prestonlee.com</text>
</g>
<!-- Admin::ContactsController -->
<g id="node2" class="node"><title>Admin::ContactsController</title>
<path fill="none" stroke="black" d="M-72.6035,101C-72.6035,101 72.6035,101 72.6035,101 78.6035,101 84.6035,95 84.6035,89 84.6035,89 84.6035,-75 84.6035,-75 84.6035,-81 78.6035,-87 72.6035,-87 72.6035,-87 -72.6035,-87 -72.6035,-87 -78.6035,-87 -84.6035,-81 -84.6035,-75 -84.6035,-75 -84.6035,89 -84.6035,89 -84.6035,95 -78.6035,101 -72.6035,101"/>
<text text-anchor="middle" x="0" y="-71.8" font-family="Times,serif" font-size="14.00">Admin::ContactsController</text>
<polyline fill="none" stroke="black" points="-84.6035,-65 84.6035,-65 "/>
<text text-anchor="start" x="-76.6035" y="-49.8" font-family="Times,serif" font-size="14.00">create</text>
<text text-anchor="start" x="-76.6035" y="-35.8" font-family="Times,serif" font-size="14.00">destroy</text>
<text text-anchor="start" x="-76.6035" y="-21.8" font-family="Times,serif" font-size="14.00">edit</text>
<text text-anchor="start" x="-76.6035" y="-7.8" font-family="Times,serif" font-size="14.00">index</text>
<text text-anchor="start" x="-76.6035" y="6.2" font-family="Times,serif" font-size="14.00">new</text>
<text text-anchor="start" x="-76.6035" y="20.2" font-family="Times,serif" font-size="14.00">show</text>
<text text-anchor="start" x="-76.6035" y="34.2" font-family="Times,serif" font-size="14.00">update</text>
<polyline fill="none" stroke="black" points="-84.6035,41 84.6035,41 "/>
<polyline fill="none" stroke="black" points="-84.6035,65 84.6035,65 "/>
<text text-anchor="start" x="-76.6035" y="80.2" font-family="Times,serif" font-size="14.00">_layout</text>
<text text-anchor="start" x="-76.6035" y="94.2" font-family="Times,serif" font-size="14.00">contact_params</text>
</g>
<!-- Admin::DashboardController -->
<g id="node3" class="node"><title>Admin::DashboardController</title>
<path fill="none" stroke="black" d="M249.569,-239C249.569,-239 406.431,-239 406.431,-239 412.431,-239 418.431,-245 418.431,-251 418.431,-251 418.431,-331 418.431,-331 418.431,-337 412.431,-343 406.431,-343 406.431,-343 249.569,-343 249.569,-343 243.569,-343 237.569,-337 237.569,-331 237.569,-331 237.569,-251 237.569,-251 237.569,-245 243.569,-239 249.569,-239"/>
<text text-anchor="middle" x="328" y="-327.8" font-family="Times,serif" font-size="14.00">Admin::DashboardController</text>
<polyline fill="none" stroke="black" points="237.569,-321 418.431,-321 "/>
<text text-anchor="start" x="245.569" y="-305.8" font-family="Times,serif" font-size="14.00">index</text>
<text text-anchor="start" x="245.569" y="-291.8" font-family="Times,serif" font-size="14.00">show</text>
<polyline fill="none" stroke="black" points="237.569,-285 418.431,-285 "/>
<polyline fill="none" stroke="black" points="237.569,-261 418.431,-261 "/>
<text text-anchor="start" x="245.569" y="-245.8" font-family="Times,serif" font-size="14.00">_layout</text>
</g>
<!-- Admin::SchedulesController -->
<g id="node4" class="node"><title>Admin::SchedulesController</title>
<path fill="none" stroke="black" d="M130.51,118C130.51,118 283.49,118 283.49,118 289.49,118 295.49,112 295.49,106 295.49,106 295.49,-44 295.49,-44 295.49,-50 289.49,-56 283.49,-56 283.49,-56 130.51,-56 130.51,-56 124.51,-56 118.51,-50 118.51,-44 118.51,-44 118.51,106 118.51,106 118.51,112 124.51,118 130.51,118"/>
<text text-anchor="middle" x="207" y="-40.8" font-family="Times,serif" font-size="14.00">Admin::SchedulesController</text>
<polyline fill="none" stroke="black" points="118.51,-34 295.49,-34 "/>
<text text-anchor="start" x="126.51" y="-18.8" font-family="Times,serif" font-size="14.00">create</text>
<text text-anchor="start" x="126.51" y="-4.8" font-family="Times,serif" font-size="14.00">destroy</text>
<text text-anchor="start" x="126.51" y="9.2" font-family="Times,serif" font-size="14.00">edit</text>
<text text-anchor="start" x="126.51" y="23.2" font-family="Times,serif" font-size="14.00">index</text>
<text text-anchor="start" x="126.51" y="37.2" font-family="Times,serif" font-size="14.00">new</text>
<text text-anchor="start" x="126.51" y="51.2" font-family="Times,serif" font-size="14.00">update</text>
<polyline fill="none" stroke="black" points="118.51,58 295.49,58 "/>
<polyline fill="none" stroke="black" points="118.51,82 295.49,82 "/>
<text text-anchor="start" x="126.51" y="97.2" font-family="Times,serif" font-size="14.00">_layout</text>
<text text-anchor="start" x="126.51" y="111.2" font-family="Times,serif" font-size="14.00">schedule_params</text>
</g>
<!-- AdminController -->
<g id="node5" class="node"><title>AdminController</title>
<path fill="none" stroke="black" d="M-226.217,84C-226.217,84 -137.783,84 -137.783,84 -131.783,84 -125.783,78 -125.783,72 -125.783,72 -125.783,-78 -125.783,-78 -125.783,-84 -131.783,-90 -137.783,-90 -137.783,-90 -226.217,-90 -226.217,-90 -232.217,-90 -238.217,-84 -238.217,-78 -238.217,-78 -238.217,72 -238.217,72 -238.217,78 -232.217,84 -226.217,84"/>
<text text-anchor="middle" x="-182" y="-74.8" font-family="Times,serif" font-size="14.00">AdminController</text>
<polyline fill="none" stroke="black" points="-238.217,-68 -125.783,-68 "/>
<text text-anchor="start" x="-230.217" y="-52.8" font-family="Times,serif" font-size="14.00">create</text>
<text text-anchor="start" x="-230.217" y="-38.8" font-family="Times,serif" font-size="14.00">destroy</text>
<text text-anchor="start" x="-230.217" y="-24.8" font-family="Times,serif" font-size="14.00">edit</text>
<text text-anchor="start" x="-230.217" y="-10.8" font-family="Times,serif" font-size="14.00">index</text>
<text text-anchor="start" x="-230.217" y="3.2" font-family="Times,serif" font-size="14.00">new</text>
<text text-anchor="start" x="-230.217" y="17.2" font-family="Times,serif" font-size="14.00">show</text>
<text text-anchor="start" x="-230.217" y="31.2" font-family="Times,serif" font-size="14.00">update</text>
<polyline fill="none" stroke="black" points="-238.217,38 -125.783,38 "/>
<polyline fill="none" stroke="black" points="-238.217,62 -125.783,62 "/>
<text text-anchor="start" x="-230.217" y="77.2" font-family="Times,serif" font-size="14.00">_layout</text>
</g>
<!-- ApplicationController -->
<g id="node6" class="node"><title>ApplicationController</title>
<path fill="none" stroke="black" d="M-106.966,-120C-106.966,-120 66.9658,-120 66.9658,-120 72.9658,-120 78.9658,-126 78.9658,-132 78.9658,-132 78.9658,-198 78.9658,-198 78.9658,-204 72.9658,-210 66.9658,-210 66.9658,-210 -106.966,-210 -106.966,-210 -112.966,-210 -118.966,-204 -118.966,-198 -118.966,-198 -118.966,-132 -118.966,-132 -118.966,-126 -112.966,-120 -106.966,-120"/>
<text text-anchor="middle" x="-20" y="-194.8" font-family="Times,serif" font-size="14.00">ApplicationController</text>
<polyline fill="none" stroke="black" points="-118.966,-188 78.9658,-188 "/>
<polyline fill="none" stroke="black" points="-118.966,-164 78.9658,-164 "/>
<text text-anchor="start" x="-110.966" y="-148.8" font-family="Times,serif" font-size="14.00">configure_permitted_parameters</text>
<polyline fill="none" stroke="black" points="-118.966,-142 78.9658,-142 "/>
<text text-anchor="start" x="-110.966" y="-126.8" font-family="Times,serif" font-size="14.00">_layout</text>
</g>
<!-- ConfirmationsController -->
<g id="node7" class="node"><title>ConfirmationsController</title>
<path fill="none" stroke="black" d="M-174.831,-239C-174.831,-239 -45.1689,-239 -45.1689,-239 -39.1689,-239 -33.1689,-245 -33.1689,-251 -33.1689,-251 -33.1689,-331 -33.1689,-331 -33.1689,-337 -39.1689,-343 -45.1689,-343 -45.1689,-343 -174.831,-343 -174.831,-343 -180.831,-343 -186.831,-337 -186.831,-331 -186.831,-331 -186.831,-251 -186.831,-251 -186.831,-245 -180.831,-239 -174.831,-239"/>
<text text-anchor="middle" x="-110" y="-327.8" font-family="Times,serif" font-size="14.00">ConfirmationsController</text>
<polyline fill="none" stroke="black" points="-186.831,-321 -33.1689,-321 "/>
<text text-anchor="start" x="-178.831" y="-305.8" font-family="Times,serif" font-size="14.00">create</text>
<text text-anchor="start" x="-178.831" y="-291.8" font-family="Times,serif" font-size="14.00">new</text>
<polyline fill="none" stroke="black" points="-186.831,-285 -33.1689,-285 "/>
<polyline fill="none" stroke="black" points="-186.831,-261 -33.1689,-261 "/>
<text text-anchor="start" x="-178.831" y="-245.8" font-family="Times,serif" font-size="14.00">_layout</text>
</g>
<!-- PasswordsController -->
<g id="node8" class="node"><title>PasswordsController</title>
<path fill="none" stroke="black" d="M45.6689,288C45.6689,288 154.331,288 154.331,288 160.331,288 166.331,282 166.331,276 166.331,276 166.331,168 166.331,168 166.331,162 160.331,156 154.331,156 154.331,156 45.6689,156 45.6689,156 39.6689,156 33.6689,162 33.6689,168 33.6689,168 33.6689,276 33.6689,276 33.6689,282 39.6689,288 45.6689,288"/>
<text text-anchor="middle" x="100" y="171.2" font-family="Times,serif" font-size="14.00">PasswordsController</text>
<polyline fill="none" stroke="black" points="33.6689,178 166.331,178 "/>
<text text-anchor="start" x="41.6689" y="193.2" font-family="Times,serif" font-size="14.00">create</text>
<text text-anchor="start" x="41.6689" y="207.2" font-family="Times,serif" font-size="14.00">edit</text>
<text text-anchor="start" x="41.6689" y="221.2" font-family="Times,serif" font-size="14.00">new</text>
<text text-anchor="start" x="41.6689" y="235.2" font-family="Times,serif" font-size="14.00">update</text>
<polyline fill="none" stroke="black" points="33.6689,242 166.331,242 "/>
<polyline fill="none" stroke="black" points="33.6689,266 166.331,266 "/>
<text text-anchor="start" x="41.6689" y="281.2" font-family="Times,serif" font-size="14.00">_layout</text>
</g>
<!-- RegistrationsController -->
<g id="node9" class="node"><title>RegistrationsController</title>
<path fill="none" stroke="black" d="M130.641,-86C130.641,-86 305.359,-86 305.359,-86 311.359,-86 317.359,-92 317.359,-98 317.359,-98 317.359,-190 317.359,-190 317.359,-196 311.359,-202 305.359,-202 305.359,-202 130.641,-202 130.641,-202 124.641,-202 118.641,-196 118.641,-190 118.641,-190 118.641,-98 118.641,-98 118.641,-92 124.641,-86 130.641,-86"/>
<text text-anchor="middle" x="218" y="-186.8" font-family="Times,serif" font-size="14.00">RegistrationsController</text>
<polyline fill="none" stroke="black" points="118.641,-180 317.359,-180 "/>
<text text-anchor="start" x="126.641" y="-164.8" font-family="Times,serif" font-size="14.00">create</text>
<text text-anchor="start" x="126.641" y="-150.8" font-family="Times,serif" font-size="14.00">new</text>
<polyline fill="none" stroke="black" points="118.641,-144 317.359,-144 "/>
<text text-anchor="start" x="126.641" y="-128.8" font-family="Times,serif" font-size="14.00">after_inactive_sign_up_path_for</text>
<text text-anchor="start" x="126.641" y="-114.8" font-family="Times,serif" font-size="14.00">after_update_path_for</text>
<polyline fill="none" stroke="black" points="118.641,-108 317.359,-108 "/>
<text text-anchor="start" x="126.641" y="-92.8" font-family="Times,serif" font-size="14.00">_layout</text>
</g>
<!-- SessionsController -->
<g id="node10" class="node"><title>SessionsController</title>
<path fill="none" stroke="black" d="M11.6411,-239C11.6411,-239 186.359,-239 186.359,-239 192.359,-239 198.359,-245 198.359,-251 198.359,-251 198.359,-329 198.359,-329 198.359,-335 192.359,-341 186.359,-341 186.359,-341 11.6411,-341 11.6411,-341 5.64111,-341 -0.358887,-335 -0.358887,-329 -0.358887,-329 -0.358887,-251 -0.358887,-251 -0.358887,-245 5.64111,-239 11.6411,-239"/>
<text text-anchor="middle" x="99" y="-325.8" font-family="Times,serif" font-size="14.00">SessionsController</text>
<polyline fill="none" stroke="black" points="-0.358887,-319 198.359,-319 "/>
<text text-anchor="start" x="7.64111" y="-303.8" font-family="Times,serif" font-size="14.00">new</text>
<polyline fill="none" stroke="black" points="-0.358887,-297 198.359,-297 "/>
<text text-anchor="start" x="7.64111" y="-281.8" font-family="Times,serif" font-size="14.00">after_inactive_sign_up_path_for</text>
<text text-anchor="start" x="7.64111" y="-267.8" font-family="Times,serif" font-size="14.00">after_sign_in_path_for</text>
<polyline fill="none" stroke="black" points="-0.358887,-261 198.359,-261 "/>
<text text-anchor="start" x="7.64111" y="-245.8" font-family="Times,serif" font-size="14.00">_layout</text>
</g>
<!-- WelcomeController -->
<g id="node11" class="node"><title>WelcomeController</title>
<path fill="none" stroke="black" d="M215.967,254C215.967,254 318.033,254 318.033,254 324.033,254 330.033,248 330.033,242 330.033,242 330.033,162 330.033,162 330.033,156 324.033,150 318.033,150 318.033,150 215.967,150 215.967,150 209.967,150 203.967,156 203.967,162 203.967,162 203.967,242 203.967,242 203.967,248 209.967,254 215.967,254"/>
<text text-anchor="middle" x="267" y="165.2" font-family="Times,serif" font-size="14.00">WelcomeController</text>
<polyline fill="none" stroke="black" points="203.967,172 330.033,172 "/>
<text text-anchor="start" x="211.967" y="187.2" font-family="Times,serif" font-size="14.00">index</text>
<text text-anchor="start" x="211.967" y="201.2" font-family="Times,serif" font-size="14.00">show</text>
<polyline fill="none" stroke="black" points="203.967,208 330.033,208 "/>
<polyline fill="none" stroke="black" points="203.967,232 330.033,232 "/>
<text text-anchor="start" x="211.967" y="247.2" font-family="Times,serif" font-size="14.00">_layout</text>
</g>
</g>
</svg>
