<?xml version="1.0" encoding="UTF-8" standalone="no"?>
<!DOCTYPE svg PUBLIC "-//W3C//DTD SVG 1.1//EN"
 "http://www.w3.org/Graphics/SVG/1.1/DTD/svg11.dtd">
<!-- Generated by graphviz version 2.38.0 (20140413.2041)
 -->
<!-- Title: models_diagram Pages: 1 -->
<svg width="478pt" height="884pt"
 viewBox="0.00 0.00 478.19 884.00" xmlns="http://www.w3.org/2000/svg" xmlns:xlink="http://www.w3.org/1999/xlink">
<g id="graph0" class="graph" transform="scale(1 1) rotate(0) translate(4 880)">
<title>models_diagram</title>
<polygon fill="none" stroke="none" points="-4,4 -4,-880 474.193,-880 474.193,4 -4,4"/>
<!-- _diagram_info -->
<g id="node1" class="node"><title>_diagram_info</title>
<text text-anchor="start" x="8" y="-749.6" font-family="Times,serif" font-size="13.00">Models diagram</text>
<text text-anchor="start" x="8" y="-736.6" font-family="Times,serif" font-size="13.00">Date: Feb 08 2016 &#45; 21:59</text>
<text text-anchor="start" x="8" y="-723.6" font-family="Times,serif" font-size="13.00">Migration version: 20160209035543</text>
<text text-anchor="start" x="8" y="-710.6" font-family="Times,serif" font-size="13.00">Generated by RailRoady 1.3.1</text>
<text text-anchor="start" x="8" y="-697.6" font-family="Times,serif" font-size="13.00">http://railroady.prestonlee.com</text>
</g>
<!-- Contact -->
<g id="node2" class="node"><title>Contact</title>
<path fill="none" stroke="black" d="M273.182,-428.5C273.182,-428.5 382.193,-428.5 382.193,-428.5 388.193,-428.5 394.193,-434.5 394.193,-440.5 394.193,-440.5 394.193,-530.5 394.193,-530.5 394.193,-536.5 388.193,-542.5 382.193,-542.5 382.193,-542.5 273.182,-542.5 273.182,-542.5 267.182,-542.5 261.182,-536.5 261.182,-530.5 261.182,-530.5 261.182,-440.5 261.182,-440.5 261.182,-434.5 267.182,-428.5 273.182,-428.5"/>
<text text-anchor="middle" x="327.688" y="-527.3" font-family="Times,serif" font-size="14.00">Contact</text>
<polyline fill="none" stroke="black" points="261.182,-520.5 394.193,-520.5 "/>
<text text-anchor="start" x="269.182" y="-505.3" font-family="Times,serif" font-size="14.00">id :integer</text>
<text text-anchor="start" x="269.182" y="-491.3" font-family="Times,serif" font-size="14.00">name :string</text>
<text text-anchor="start" x="269.182" y="-477.3" font-family="Times,serif" font-size="14.00">phone :string</text>
<text text-anchor="start" x="269.182" y="-463.3" font-family="Times,serif" font-size="14.00">user_id :integer</text>
<text text-anchor="start" x="269.182" y="-449.3" font-family="Times,serif" font-size="14.00">created_at :datetime</text>
<text text-anchor="start" x="269.182" y="-435.3" font-family="Times,serif" font-size="14.00">updated_at :datetime</text>
</g>
<!-- Schedule -->
<g id="node4" class="node"><title>Schedule</title>
<path fill="none" stroke="black" d="M213.686,-263.5C213.686,-263.5 441.69,-263.5 441.69,-263.5 447.69,-263.5 453.69,-269.5 453.69,-275.5 453.69,-275.5 453.69,-379.5 453.69,-379.5 453.69,-385.5 447.69,-391.5 441.69,-391.5 441.69,-391.5 213.686,-391.5 213.686,-391.5 207.686,-391.5 201.686,-385.5 201.686,-379.5 201.686,-379.5 201.686,-275.5 201.686,-275.5 201.686,-269.5 207.686,-263.5 213.686,-263.5"/>
<text text-anchor="middle" x="327.688" y="-376.3" font-family="Times,serif" font-size="14.00">Schedule</text>
<polyline fill="none" stroke="black" points="201.686,-369.5 453.69,-369.5 "/>
<text text-anchor="start" x="209.686" y="-354.3" font-family="Times,serif" font-size="14.00">id :integer</text>
<text text-anchor="start" x="209.686" y="-340.3" font-family="Times,serif" font-size="14.00">message :string</text>
<text text-anchor="start" x="209.686" y="-326.3" font-family="Times,serif" font-size="14.00">next_call_time :datetime</text>
<text text-anchor="start" x="209.686" y="-312.3" font-family="Times,serif" font-size="14.00">last_successful_summit_request :datetime</text>
<text text-anchor="start" x="209.686" y="-298.3" font-family="Times,serif" font-size="14.00">contact_id :integer</text>
<text text-anchor="start" x="209.686" y="-284.3" font-family="Times,serif" font-size="14.00">created_at :datetime</text>
<text text-anchor="start" x="209.686" y="-270.3" font-family="Times,serif" font-size="14.00">updated_at :datetime</text>
</g>
<!-- Contact&#45;&gt;Schedule -->
<g id="edge1" class="edge"><title>Contact&#45;&gt;Schedule</title>
<path fill="none" stroke="#3c5cc5" d="M327.688,-420.015C327.688,-414.002 327.688,-407.878 327.688,-401.793"/>
<ellipse fill="none" stroke="#3c5cc5" cx="327.688" cy="-424.18" rx="4" ry="4"/>
<polygon fill="#3c5cc5" stroke="#3c5cc5" points="327.688,-401.614 332.188,-391.614 327.688,-396.614 327.688,-391.614 327.688,-391.614 327.688,-391.614 327.688,-396.614 323.188,-391.614 327.688,-401.614 327.688,-401.614"/>
</g>
<!-- Frequency -->
<g id="node3" class="node"><title>Frequency</title>
<path fill="none" stroke="black" d="M198.182,-0.5C198.182,-0.5 307.193,-0.5 307.193,-0.5 313.193,-0.5 319.193,-6.5 319.193,-12.5 319.193,-12.5 319.193,-214.5 319.193,-214.5 319.193,-220.5 313.193,-226.5 307.193,-226.5 307.193,-226.5 198.182,-226.5 198.182,-226.5 192.182,-226.5 186.182,-220.5 186.182,-214.5 186.182,-214.5 186.182,-12.5 186.182,-12.5 186.182,-6.5 192.182,-0.5 198.182,-0.5"/>
<text text-anchor="middle" x="252.688" y="-211.3" font-family="Times,serif" font-size="14.00">Frequency</text>
<polyline fill="none" stroke="black" points="186.182,-204.5 319.193,-204.5 "/>
<text text-anchor="start" x="194.182" y="-189.3" font-family="Times,serif" font-size="14.00">id :integer</text>
<text text-anchor="start" x="194.182" y="-175.3" font-family="Times,serif" font-size="14.00">start_date :date</text>
<text text-anchor="start" x="194.182" y="-161.3" font-family="Times,serif" font-size="14.00">time :time</text>
<text text-anchor="start" x="194.182" y="-147.3" font-family="Times,serif" font-size="14.00">repeat :boolean</text>
<text text-anchor="start" x="194.182" y="-133.3" font-family="Times,serif" font-size="14.00">sunday :boolean</text>
<text text-anchor="start" x="194.182" y="-119.3" font-family="Times,serif" font-size="14.00">monday :boolean</text>
<text text-anchor="start" x="194.182" y="-105.3" font-family="Times,serif" font-size="14.00">tuesday :boolean</text>
<text text-anchor="start" x="194.182" y="-91.3" font-family="Times,serif" font-size="14.00">wednesday :boolean</text>
<text text-anchor="start" x="194.182" y="-77.3" font-family="Times,serif" font-size="14.00">thursday :boolean</text>
<text text-anchor="start" x="194.182" y="-63.3" font-family="Times,serif" font-size="14.00">friday :boolean</text>
<text text-anchor="start" x="194.182" y="-49.3" font-family="Times,serif" font-size="14.00">saturday :boolean</text>
<text text-anchor="start" x="194.182" y="-35.3" font-family="Times,serif" font-size="14.00">schedule_id :integer</text>
<text text-anchor="start" x="194.182" y="-21.3" font-family="Times,serif" font-size="14.00">created_at :datetime</text>
<text text-anchor="start" x="194.182" y="-7.3" font-family="Times,serif" font-size="14.00">updated_at :datetime</text>
</g>
<!-- Schedule&#45;&gt;Frequency -->
<g id="edge3" class="edge"><title>Schedule&#45;&gt;Frequency</title>
<path fill="none" stroke="#b6db2f" d="M302.628,-255.664C300.182,-248.75 297.656,-241.611 295.099,-234.384"/>
<ellipse fill="none" stroke="#b6db2f" cx="304.054" cy="-259.696" rx="4.00001" ry="4.00001"/>
<ellipse fill="#b6db2f" stroke="#b6db2f" cx="293.649" cy="-230.285" rx="4.00001" ry="4.00001"/>
</g>
<!-- ScheduledCall -->
<g id="node5" class="node"><title>ScheduledCall</title>
<path fill="none" stroke="black" d="M349.182,-63.5C349.182,-63.5 458.193,-63.5 458.193,-63.5 464.193,-63.5 470.193,-69.5 470.193,-75.5 470.193,-75.5 470.193,-151.5 470.193,-151.5 470.193,-157.5 464.193,-163.5 458.193,-163.5 458.193,-163.5 349.182,-163.5 349.182,-163.5 343.182,-163.5 337.182,-157.5 337.182,-151.5 337.182,-151.5 337.182,-75.5 337.182,-75.5 337.182,-69.5 343.182,-63.5 349.182,-63.5"/>
<text text-anchor="middle" x="403.688" y="-148.3" font-family="Times,serif" font-size="14.00">ScheduledCall</text>
<polyline fill="none" stroke="black" points="337.182,-141.5 470.193,-141.5 "/>
<text text-anchor="start" x="345.182" y="-126.3" font-family="Times,serif" font-size="14.00">id :integer</text>
<text text-anchor="start" x="345.182" y="-112.3" font-family="Times,serif" font-size="14.00">call_id :string</text>
<text text-anchor="start" x="345.182" y="-98.3" font-family="Times,serif" font-size="14.00">schedule_id :integer</text>
<text text-anchor="start" x="345.182" y="-84.3" font-family="Times,serif" font-size="14.00">created_at :datetime</text>
<text text-anchor="start" x="345.182" y="-70.3" font-family="Times,serif" font-size="14.00">updated_at :datetime</text>
</g>
<!-- Schedule&#45;&gt;ScheduledCall -->
<g id="edge2" class="edge"><title>Schedule&#45;&gt;ScheduledCall</title>
<path fill="none" stroke="#2c6e5a" d="M352.999,-255.894C362.594,-229.13 373.408,-198.966 382.575,-173.393"/>
<ellipse fill="none" stroke="#2c6e5a" cx="351.634" cy="-259.702" rx="4.00001" ry="4.00001"/>
<polygon fill="#2c6e5a" stroke="#2c6e5a" points="382.627,-173.247 390.238,-165.352 384.315,-168.54 386.002,-163.834 386.002,-163.834 386.002,-163.834 384.315,-168.54 381.766,-162.315 382.627,-173.247 382.627,-173.247"/>
</g>
<!-- User -->
<g id="node6" class="node"><title>User</title>
<path fill="none" stroke="black" d="M237.41,-579.5C237.41,-579.5 417.966,-579.5 417.966,-579.5 423.966,-579.5 429.966,-585.5 429.966,-591.5 429.966,-591.5 429.966,-863.5 429.966,-863.5 429.966,-869.5 423.966,-875.5 417.966,-875.5 417.966,-875.5 237.41,-875.5 237.41,-875.5 231.41,-875.5 225.41,-869.5 225.41,-863.5 225.41,-863.5 225.41,-591.5 225.41,-591.5 225.41,-585.5 231.41,-579.5 237.41,-579.5"/>
<text text-anchor="middle" x="327.688" y="-860.3" font-family="Times,serif" font-size="14.00">User</text>
<polyline fill="none" stroke="black" points="225.41,-853.5 429.966,-853.5 "/>
<text text-anchor="start" x="233.41" y="-838.3" font-family="Times,serif" font-size="14.00">id :integer</text>
<text text-anchor="start" x="233.41" y="-824.3" font-family="Times,serif" font-size="14.00">email :string</text>
<text text-anchor="start" x="233.41" y="-810.3" font-family="Times,serif" font-size="14.00">encrypted_password :string</text>
<text text-anchor="start" x="233.41" y="-796.3" font-family="Times,serif" font-size="14.00">reset_password_token :string</text>
<text text-anchor="start" x="233.41" y="-782.3" font-family="Times,serif" font-size="14.00">reset_password_sent_at :datetime</text>
<text text-anchor="start" x="233.41" y="-768.3" font-family="Times,serif" font-size="14.00">remember_created_at :datetime</text>
<text text-anchor="start" x="233.41" y="-754.3" font-family="Times,serif" font-size="14.00">sign_in_count :integer</text>
<text text-anchor="start" x="233.41" y="-740.3" font-family="Times,serif" font-size="14.00">current_sign_in_at :datetime</text>
<text text-anchor="start" x="233.41" y="-726.3" font-family="Times,serif" font-size="14.00">last_sign_in_at :datetime</text>
<text text-anchor="start" x="233.41" y="-712.3" font-family="Times,serif" font-size="14.00">current_sign_in_ip :string</text>
<text text-anchor="start" x="233.41" y="-698.3" font-family="Times,serif" font-size="14.00">last_sign_in_ip :string</text>
<text text-anchor="start" x="233.41" y="-684.3" font-family="Times,serif" font-size="14.00">confirmation_token :string</text>
<text text-anchor="start" x="233.41" y="-670.3" font-family="Times,serif" font-size="14.00">confirmed_at :datetime</text>
<text text-anchor="start" x="233.41" y="-656.3" font-family="Times,serif" font-size="14.00">confirmation_sent_at :datetime</text>
<text text-anchor="start" x="233.41" y="-642.3" font-family="Times,serif" font-size="14.00">unconfirmed_email :string</text>
<text text-anchor="start" x="233.41" y="-628.3" font-family="Times,serif" font-size="14.00">name :string</text>
<text text-anchor="start" x="233.41" y="-614.3" font-family="Times,serif" font-size="14.00">subscription :string</text>
<text text-anchor="start" x="233.41" y="-600.3" font-family="Times,serif" font-size="14.00">created_at :datetime</text>
<text text-anchor="start" x="233.41" y="-586.3" font-family="Times,serif" font-size="14.00">updated_at :datetime</text>
</g>
<!-- User&#45;&gt;Contact -->
<g id="edge4" class="edge"><title>User&#45;&gt;Contact</title>
<path fill="none" stroke="#0d3d8e" d="M327.688,-571.189C327.688,-564.931 327.688,-558.814 327.688,-552.914"/>
<ellipse fill="none" stroke="#0d3d8e" cx="327.688" cy="-575.29" rx="4" ry="4"/>
<polygon fill="#0d3d8e" stroke="#0d3d8e" points="327.688,-552.546 332.188,-542.546 327.688,-547.546 327.688,-542.546 327.688,-542.546 327.688,-542.546 327.688,-547.546 323.188,-542.546 327.688,-552.546 327.688,-552.546"/>
</g>
</g>
</svg>
