<?xml version="1.0" encoding="UTF-8" standalone="no"?>
<!DOCTYPE svg PUBLIC "-//W3C//DTD SVG 1.1//EN"
 "http://www.w3.org/Graphics/SVG/1.1/DTD/svg11.dtd">
<!-- Generated by graphviz version 2.38.0 (20140413.2041)
 -->
<!-- Title: models_diagram Pages: 1 -->
<svg width="402pt" height="297pt"
 viewBox="0.00 0.00 402.10 297.00" xmlns="http://www.w3.org/2000/svg" xmlns:xlink="http://www.w3.org/1999/xlink">
<g id="graph0" class="graph" transform="scale(1 1) rotate(0) translate(4 293)">
<title>models_diagram</title>
<polygon fill="none" stroke="none" points="-4,4 -4,-293 398.105,-293 398.105,4 -4,4"/>
<!-- _diagram_info -->
<g id="node1" class="node"><title>_diagram_info</title>
<text text-anchor="start" x="8" y="-274.6" font-family="Times,serif" font-size="13.00">Models diagram</text>
<text text-anchor="start" x="8" y="-261.6" font-family="Times,serif" font-size="13.00">Date: Feb 08 2016 &#45; 21:59</text>
<text text-anchor="start" x="8" y="-248.6" font-family="Times,serif" font-size="13.00">Migration version: 20160209035543</text>
<text text-anchor="start" x="8" y="-235.6" font-family="Times,serif" font-size="13.00">Generated by RailRoady 1.3.1</text>
<text text-anchor="start" x="8" y="-222.6" font-family="Times,serif" font-size="13.00">http://railroady.prestonlee.com</text>
</g>
<!-- Contact -->
<g id="node2" class="node"><title>Contact</title>
<ellipse fill="none" stroke="black" cx="252.688" cy="-162" rx="37.7266" ry="18"/>
<text text-anchor="middle" x="252.688" y="-157.8" font-family="Times,serif" font-size="14.00">Contact</text>
</g>
<!-- Schedule -->
<g id="node5" class="node"><title>Schedule</title>
<ellipse fill="none" stroke="black" cx="252.688" cy="-90" rx="42.5456" ry="18"/>
<text text-anchor="middle" x="252.688" y="-85.8" font-family="Times,serif" font-size="14.00">Schedule</text>
</g>
<!-- Contact&#45;&gt;Schedule -->
<g id="edge1" class="edge"><title>Contact&#45;&gt;Schedule</title>
<path fill="none" stroke="#c71713" d="M252.688,-135.64C252.688,-130.063 252.688,-124.132 252.688,-118.476"/>
<ellipse fill="none" stroke="#c71713" cx="252.688" cy="-139.697" rx="4" ry="4"/>
<polygon fill="#c71713" stroke="#c71713" points="252.688,-118.104 257.188,-108.104 252.688,-113.104 252.688,-108.104 252.688,-108.104 252.688,-108.104 252.688,-113.104 248.188,-108.104 252.688,-118.104 252.688,-118.104"/>
</g>
<!-- Dashboard -->
<g id="node3" class="node"><title>Dashboard</title>
<ellipse fill="none" stroke="black" cx="345.688" cy="-252.5" rx="48.3341" ry="18"/>
<text text-anchor="middle" x="345.688" y="-248.3" font-family="Times,serif" font-size="14.00">Dashboard</text>
</g>
<!-- Frequency -->
<g id="node4" class="node"><title>Frequency</title>
<ellipse fill="none" stroke="black" cx="189.688" cy="-18" rx="47.365" ry="18"/>
<text text-anchor="middle" x="189.688" y="-13.8" font-family="Times,serif" font-size="14.00">Frequency</text>
</g>
<!-- Schedule&#45;&gt;Frequency -->
<g id="edge3" class="edge"><title>Schedule&#45;&gt;Frequency</title>
<path fill="none" stroke="#cf6f83" d="M232.566,-66.6425C225.223,-58.4831 216.926,-49.2647 209.601,-41.1256"/>
<ellipse fill="none" stroke="#cf6f83" cx="235.4" cy="-69.7915" rx="4.00002" ry="4.00002"/>
<ellipse fill="#cf6f83" stroke="#cf6f83" cx="206.896" cy="-38.1205" rx="4.00002" ry="4.00002"/>
</g>
<!-- ScheduledCall -->
<g id="node6" class="node"><title>ScheduledCall</title>
<ellipse fill="none" stroke="black" cx="316.688" cy="-18" rx="61.8649" ry="18"/>
<text text-anchor="middle" x="316.688" y="-13.8" font-family="Times,serif" font-size="14.00">ScheduledCall</text>
</g>
<!-- Schedule&#45;&gt;ScheduledCall -->
<g id="edge2" class="edge"><title>Schedule&#45;&gt;ScheduledCall</title>
<path fill="none" stroke="#3f7d9f" d="M273.046,-66.7336C279.816,-59.3287 287.391,-51.0434 294.306,-43.4805"/>
<ellipse fill="none" stroke="#3f7d9f" cx="270.231" cy="-69.8125" rx="4.00002" ry="4.00002"/>
<polygon fill="#3f7d9f" stroke="#3f7d9f" points="294.732,-43.0137 304.801,-38.6699 298.106,-39.3236 301.48,-35.6334 301.48,-35.6334 301.48,-35.6334 298.106,-39.3236 298.159,-32.5969 294.732,-43.0137 294.732,-43.0137"/>
</g>
<!-- User -->
<g id="node7" class="node"><title>User</title>
<ellipse fill="none" stroke="black" cx="252.688" cy="-252.5" rx="27" ry="18"/>
<text text-anchor="middle" x="252.688" y="-248.3" font-family="Times,serif" font-size="14.00">User</text>
</g>
<!-- User&#45;&gt;Contact -->
<g id="edge4" class="edge"><title>User&#45;&gt;Contact</title>
<path fill="none" stroke="#ed932c" d="M252.688,-226.189C252.688,-214.971 252.688,-201.752 252.688,-190.311"/>
<ellipse fill="none" stroke="#ed932c" cx="252.688" cy="-230.436" rx="4" ry="4"/>
<polygon fill="#ed932c" stroke="#ed932c" points="252.688,-190.011 257.188,-180.011 252.688,-185.011 252.688,-180.011 252.688,-180.011 252.688,-180.011 252.688,-185.011 248.188,-180.011 252.688,-190.011 252.688,-190.011"/>
</g>
</g>
</svg>
